# xmcd CD database file
#
# Track frame offsets:
#	150
#	45065
#	95942
#	122488
#	159611
#	189419
#
# Disc length: 3169 seconds
#
# Revision: 1
# Processed by: cddbd v1.5.2PL0 Copyright (c) Steve Scherf et al.
# Submitted via: CDex 1.70beta1
#
DISCID=430c5f06
DTITLE=Miles Davis - The Man with the Horn
DYEAR=1980
DGENRE=Jazz
TTITLE0=Fat Time
TTITLE1=Back Seat Betty
TTITLE2=Shout
TTITLE3=Aida
TTITLE4=The Man with the Horn
TTITLE5=Ursula
EXTD=YEAR: 1980
EXTT0=
EXTT1=
EXTT2=
EXTT3=
EXTT4=
EXTT5=
PLAYORDER=
